<svg width="90" height="90" viewBox="0 0 480 480" fill="none" xmlns="http://www.w3.org/2000/svg">
<g clip-path="url(#clip0_0_1)">
<path d="M160.5 220.8C157.7 220.6 149.1 220.5 134.7 220.5C120.3 220.5 111.9 220.9 109.5 221.7C98.9 256.5 92.9 281.6 91.5 297C91.5 297.2 89 297.3 84 297.3C79.2 297.3 74.2 297 69 296.4C58 294.8 52.5 293.4 52.5 292.2C52.5 284.2 59.6 260.9 73.8 222.3C71.2 220.1 68.2 215.6 64.8 208.8C61.4 201.8 59.7 196 59.7 191.4C59.7 191.2 68 190.8 84.6 190.2C101 142.6 110.3 117.5 112.5 114.9C113.3 114.3 116.9 113.4 123.3 112.2C129.7 110.8 133.8 110.1 135.6 110.1L135 106.2C134.6 103.4 134.1 100.4 133.5 97.2C133.1 93.8 132.9 91.6 132.9 90.6C132.9 90 134.6 88.8 138 87C147.8 82.2 157.9 79.8 168.3 79.8C170.3 91.6 172.9 106.7 176.1 125.1C179.5 143.3 186 171.2 195.6 208.8C205.2 246.4 214.4 272.6 223.2 287.4L225.3 291C225.3 292 223.4 293.7 219.6 296.1C215.8 298.5 210.8 300.8 204.6 303C198.4 305.2 192.7 306.3 187.5 306.3C185.7 306.3 181.3 295 174.3 272.4C167.5 249.6 162.9 232.4 160.5 220.8ZM153.3 189.9C146.5 161.1 142.8 145 142.2 141.6C141.6 138.2 141.1 136.5 140.7 136.5C140.3 136.5 139.8 136.9 139.2 137.7C137.4 141.1 134 149.3 129 162.3C124.2 175.3 121.1 184.3 119.7 189.3C141.9 189.3 153.1 189.5 153.3 189.9Z" fill="black"/>
<path d="M381.72 179.92C381.72 198.4 378.173 223.693 371.08 255.8C363.987 287.72 356.707 315.533 349.24 339.24C341.773 362.947 336.92 375.827 334.68 377.88C332.44 380.12 327.213 382.08 319 383.76C310.973 385.44 304.813 386.28 300.52 386.28C296.227 386.28 294.08 386 294.08 385.44C293.707 383.947 291.933 374.427 288.76 356.88C279.427 307.787 274.107 281.747 272.8 278.76C271.493 275.587 270.653 274 270.28 274L268.88 275.68C264.213 287.253 258.893 305.36 252.92 330C247.133 354.453 244.24 368.453 244.24 372C244.24 372.747 242.467 373.773 238.92 375.08C229.213 378.627 219.693 380.4 210.36 380.4C208.307 380.4 207 380.12 206.44 379.56C201.4 374.52 193.653 347.08 183.2 297.24C172.933 247.213 167.8 212.027 167.8 191.68C167.8 191.307 168.733 190.56 170.6 189.44C176.947 186.267 183.853 184.773 191.32 184.96C198.973 184.96 202.8 185.147 202.8 185.52C204.107 209.787 206.813 235.36 210.92 262.24C215.213 288.933 219.32 307.227 223.24 317.12C223.613 318.427 223.987 319.08 224.36 319.08C224.92 319.08 225.48 318.427 226.04 317.12C241.347 257.947 250.68 226.587 254.04 223.04C260.76 220.427 270.187 219.12 282.32 219.12C289.04 219.493 292.68 219.96 293.24 220.52C293.8 221.08 295.667 228.92 298.84 244.04C302.013 258.973 305.467 275.587 309.2 293.88C312.933 311.987 315.173 322.907 315.92 326.64C316.853 330.187 318.067 330 319.56 326.08C322.733 317.307 326.747 301.347 331.6 278.2C336.453 255.053 338.88 233.213 338.88 212.68C338.88 210.627 337.107 208.667 333.56 206.8C330.2 204.747 326.747 203.533 323.2 203.16C323.013 202.6 322.92 201.48 322.92 199.8C322.92 197.933 323.293 195.32 324.04 191.96C324.973 188.413 325.72 186.36 326.28 185.8C343.267 181.32 360.253 179.08 377.24 179.08C380.227 179.453 381.72 179.733 381.72 179.92Z" fill="black"/>
<path d="M327.9 344.7L328.2 312.3C328.2 303.7 328 299 327.6 298.2C325.4 296 322.5 290.7 318.9 282.3C315.5 273.9 313.8 268.5 313.8 266.1C316 263.9 351.1 262.8 419.1 262.8C435.9 262.8 444.3 263.2 444.3 264C444.3 268.2 443.3 272.8 441.3 277.8C439.5 282.8 437.5 286.8 435.3 289.8C433.3 292.8 431.8 294.2 430.8 294C430 293.6 425.9 293.4 418.5 293.4C411.3 293.4 401.2 293.9 388.2 294.9C375.2 295.7 368.1 296.7 366.9 297.9C365.7 299.1 365.1 310.1 365.1 330.9L365.4 343.5C373.4 343.3 385.2 343.2 400.8 343.2C416.4 343.2 424.2 343.5 424.2 344.1C424.2 351.3 421.8 359.5 417 368.7C415.2 371.9 414.1 373.4 413.7 373.2C408.5 373.2 399.6 373.7 387 374.7C374.4 375.5 367.1 376.5 365.1 377.7C364.9 377.9 364.8 386.3 364.8 402.9C364.8 419.5 365.3 428.3 366.3 429.3C369.5 432.5 386.7 434.1 417.9 434.1C430.5 434.1 439 433.8 443.4 433.2C447.8 432.4 450 432.1 450 432.3C450 437.1 448.4 442.8 445.2 449.4C442 456 438.6 461 435 464.4C433 466.4 415 467.4 381 467.4C347.2 467.4 329.7 466.6 328.5 465C327.3 464 326.7 454.4 326.7 436.2C326.7 417.8 326.9 398.4 327.3 378C323.7 374.8 320.2 369.8 316.8 363C313.6 356.2 312 350.4 312 345.6C312 345.4 317.3 345.1 327.9 344.7Z" fill="black"/>
</g>
<defs>
<clipPath id="clip0_0_1">
<rect width="480" height="480" fill="white"/>
</clipPath>
</defs>
</svg>
